<svg width="42" height="42" viewBox="0 0 42 42" fill="none" xmlns="http://www.w3.org/2000/svg">
  <defs>
    <linearGradient id="lgBg" x1="0" y1="0" x2="42" y2="42" gradientUnits="userSpaceOnUse">
      <stop offset="0%" stop-color="#2D6BE4"></stop>
      <stop offset="100%" stop-color="#5B8AF0"></stop>
    </linearGradient>
  </defs>
  <rect width="42" height="42" rx="13" fill="url(#lgBg)"></rect>
  <ellipse cx="21" cy="17" rx="13.5" ry="12" fill="white" opacity="0.95"></ellipse>
  <path d="M10 14 C12 11.5 15 12 15 14.5" stroke="#C0D4F5" stroke-width="1.4" stroke-linecap="round" fill="none"></path>
  <path d="M18 10 C20 8 23 8.5 23 11" stroke="#C0D4F5" stroke-width="1.4" stroke-linecap="round" fill="none"></path>
  <path d="M26 12 C28 10 31 11 30 14" stroke="#C0D4F5" stroke-width="1.4" stroke-linecap="round" fill="none"></path>
  <path d="M10.5 19 C12.5 17 15 17.5 15 19.5" stroke="#C0D4F5" stroke-width="1.2" stroke-linecap="round" fill="none"></path>
  <path d="M27 18.5 C29 17 31.5 17.5 31 19.5" stroke="#C0D4F5" stroke-width="1.2" stroke-linecap="round" fill="none"></path>
  <circle cx="17" cy="17.5" r="2.2" fill="#1A2235"></circle>
  <circle cx="25" cy="17.5" r="2.2" fill="#1A2235"></circle>
  <circle cx="17.8" cy="16.7" r="0.75" fill="white"></circle>
  <circle cx="25.8" cy="16.7" r="0.75" fill="white"></circle>
  <ellipse cx="13.5" cy="21" rx="3" ry="2" fill="#FFB3C1" opacity="0.55"></ellipse>
  <ellipse cx="28.5" cy="21" rx="3" ry="2" fill="#FFB3C1" opacity="0.55"></ellipse>
  <path d="M18 21.5 Q21 24 24 21.5" stroke="#1A2235" stroke-width="1.4" stroke-linecap="round" fill="none"></path>
  <rect x="15" y="28" width="12" height="8" rx="5" fill="#A0C0F5" opacity="0.85"></rect>
  <path d="M15 31 L27 31" stroke="rgba(255,255,255,0.6)" stroke-width="3" stroke-linecap="round"></path>
</svg>
